<?xml version="1.0" encoding="utf-8"?>
<!-- Generator: Adobe Illustrator 27.5.0, SVG Export Plug-In . SVG Version: 6.00 Build 0)  -->
<svg version="1.1" xmlns="http://www.w3.org/2000/svg" xmlns:xlink="http://www.w3.org/1999/xlink" x="0px" y="0px"
	 viewBox="0 0 500 500" style="enable-background:new 0 0 500 500;" xml:space="preserve">
<g id="BACKGROUND">
	<rect style="fill:#FFFFFF;" width="500" height="500"/>
	<rect x="92.56" y="29.981" style="fill:none;" width="314.881" height="22.613"/>
	<text transform="matrix(1 0 0 1 152.1318 52.2659)" style="fill:#F57C00; font-family:'Raleway-Black'; font-size:30.527px;">BASKETBALL </text>
	<rect x="123.228" y="60.508" style="fill:none;" width="253.544" height="11.306"/>
	
		<text transform="matrix(1 0 0 1 152.0396 71.6502)" style="fill:#424242; font-family:'Raleway-Black'; font-size:15.2635px; letter-spacing:9;">SILHOUETTES</text>
	<g>
		<path style="fill:#EEEEEE;" d="M70.747,145.443c0.903-4.29,1.806-4.911,1.411-6.746c-0.395-1.835-0.056-2.343,0.452-2.343
			c0.508,0,0.508,1.27,0.762,1.806c0.254,0.536,0.621,1.355,0.819-0.057c0.198-1.411-0.903-3.02-0.085-3.415
			c0.819-0.395,1.186,1.298,1.242,2.032c0.056,0.734,0.113,1.722,0.423,1.524c0.311-0.198,0.169-1.129,0.254-1.919
			c0.085-0.79-0.085-2.06,0.593-1.891c0.677,0.169,1.016,1.919,0.818,3.02c-0.197,1.101-0.197,1.355,0.057,1.355
			s0.508-0.254,0.564-1.186c0.056-0.931,0.226-1.835,0.706-1.835c0.48,0,0.903,1.439,0.79,2.456
			c-0.113,1.016-0.339,3.048-0.508,3.726c-0.169,0.677-0.339,2.343,0.452,1.27c0.79-1.073,2.823-1.863,3.331-1.468
			c0.508,0.395-1.411,2.202-1.919,2.569c-0.508,0.367-0.875,1.835-2.54,2.23c-1.665,0.395-3.274,0.96-3.613,1.948
			s-2.004,3.189-0.706,3.189s3.556-2.202,6.605-0.367c0,0,2.625-3.556,5.193-3.443c2.569,0.113,3.02,0.96,3.726,0.593
			c0.706-0.367,2.004,0.311,2.738-1.044c0.734-1.355,2.314-0.028,2.766-0.762c0.452-0.734,3.302-1.355,4.488-1.665
			c1.185-0.311-0.621-0.508-1.919-0.762c-1.298-0.254-2.569,0.762-2.71-1.496c-0.141-2.258-1.101-2.456-0.085-2.766
			c0,0-0.847-0.48-0.188-1.063c0.418-0.37,0.903-1.28,0.489-1.543c-0.414-0.264-1.261-0.442-0.64-1.232
			c0.621-0.79,1.298-1.007,1.731-2.493c0.433-1.486-0.452-1.402,0.583-2.587c1.035-1.186,3.218-5.448,8.835-3.923
			c5.617,1.524,6.83,4.798,6.83,7.931s-3.895,6.661-3.415,8.947c0.48,2.286,0.96-0.085,2.879,1.524
			c1.919,1.609,4.149-0.677,6.435-0.339c2.286,0.339,5.796,1.393,7.828,3.425c0,0,5.758-3.048,10.989,1.167
			c0,0,4.441-5.984,4.667-10.086s2.371-6.435,0.414-8.505s-5.495-4.328-4.968-7.564c0.004-0.027,0.016-0.049,0.022-0.075
			c-1.224-1.548-1.96-3.5-1.96-5.627c0-5.02,4.069-9.089,9.089-9.089c5.019,0,9.089,4.069,9.089,9.089
			c0,3.331-1.798,6.235-4.47,7.817c-0.219,0.467-0.429,1.199-0.479,2.325c-0.113,2.559-1.129,4.215-1.129,5.645
			s0,13.398-1.769,17.989s0.075,5.005-2.785,5.495c-2.86,0.489-13.586,2.898-20.435-0.113c0,0-2.183,2.258-3.011,7.188
			c-0.828,4.93-1.919,7.865-1.581,11.177c0.339,3.312,0.64,2.785,1.28,7.489c0.64,4.704-0.108,0.069,5.194,6.247
			c2.546,2.967,1.298,9.126,3.5,12.4c2.202,3.274,2.202,9.568,3.302,12.673c0.77,2.171,2.713,4.081,3.812,5.032
			c0.312,0.271,0.196,0.775-0.199,0.896c-2.335,0.72-2.921,1.81-2.921,1.81c1.079,1.885,2.036,1.537,2.036,1.537
			s3.689-2.448,9.025,0.115c5.336,2.562,10.492,3.376,12.525,1.709c2.032-1.668,6.123-3.523,7.316-1.788
			c1.193,1.735,2.264,5.813,4.307,6.957c2.043,1.145,4.647,4.555,4.791,7.564c0.144,3.009,0.697,7.467-2.717,8.117
			c-3.414,0.65-4.474-6.715-7.65-9.104c-3.176-2.389-4.887-3.329-6.653-4.459c-0.763-0.489-2.925-0.666-11.735-0.294
			c-8.81,0.372-15.693,0.101-20.774-6.661c0,0-1.468,1.129-1.919-0.339c0,0-3.048-7.677-5.532-11.742c0,0-0.866,7.226,0.489,9.935
			c1.355,2.71,2.841,5.701,3.237,6.097c0.395,0.395-1.637,2.032-5.306,1.976c-3.669-0.056-2.371,2.258-2.145,3.161
			s5.404,6.266,7.5,15.072c2.097,8.806,7.403,8.016,8.871,11.516c1.468,3.5,4.14,0.903,3.312,5.457
			c-0.828,4.554-2.86,2.954-1.449,5.946c1.411,2.992,1.637,3.387,0.056,6.379c-1.581,2.992-3.839,4.177-5.08,2.823
			c-1.242-1.355-1.468-3.274-2.202-9.71c-0.734-6.435-0.847-5.871-2.597-8.129c-1.75-2.258,1.411-1.637-1.185-4.234
			c-2.597-2.597-9.823-11.629-12.984-18.064c-3.161-6.435-4.008-5.363-4.347-8.524c-0.339-3.161-4.949-13.153-4.949-18.422
			c0-5.269,0-10.537-0.527-13.322c-0.527-2.785,0.075-5.57,0.753-9.107c0.677-3.538,1.054-3.763,0.452-4.892
			c-0.602-1.129-1.656-1.806-3.236-7.301c-1.581-5.495-2.333-5.495-2.785-8.806c-0.452-3.312,0.151-4.968-1.129-7.527
			c-1.28-2.559,0-6.473-3.237-6.849c-3.236-0.376-4.742,2.183-8.129,2.183s-9.634,1.43-12.494-1.204
			C62.919,155.453,69.843,149.733,70.747,145.443z"/>
		<g>
			<path style="fill:#EEEEEE;" d="M286.158,338.011C286.24,337.387,287.61,337.565,286.158,338.011L286.158,338.011z"/>
			<path style="fill:#EEEEEE;" d="M227.691,418.809c2.046-4.773,2.727-9.887,6.136-14.319c2.046-2.727,4.432-4.773,6.478-7.5
				c5.114-7.159,8.864-14.319,14.66-20.796c2.046-4.432,4.773-8.864,5.625-13.978c0,0-6.137,6.904-12.785,8.182
				c-3.409,3.409-7.159,6.477-11.591,8.864c-2.339,1.079-4.007,3.017-5.066,5.355c2.49,1.825,4.108,4.769,4.108,8.093
				c0,5.539-4.49,10.029-10.029,10.029s-10.029-4.49-10.029-10.029s4.49-10.029,10.029-10.029c0.274,0,0.544,0.014,0.812,0.036
				c3.672-2.187,6.242-5.718,8.811-9.25c3.068-3.75,6.818-5.796,10.568-8.523c0.682-0.682,1.023-1.705,1.705-2.386
				c3.409-3.75,7.5-5.796,10.909-9.205c2.387-2.046,4.773-3.409,7.5-5.114c2.386-1.364,5.455-1.705,7.841-3.409
				c0.341-0.341,0.682-1.023,0.682-1.705c-0.341-1.705-2.046-3.068-2.046-4.773c0-1.023,1.364-0.682,1.364-1.364
				c-0.341-3.75,1.023-7.841,5.114-8.864c1.364,0,3.068-0.341,4.432,0.341c3.75,1.705,3.75,6.137,3.239,9.546
				c1.452-0.445,0.343,2.826-0.043,3.313c-0.967,1.221-1.125,2.526-1.718,3.96c0,0-0.256,0.909,3.182,2.5
				c4.984,2.307,7.238,7.728,7.238,7.728c2.898,2.955,7.273,4.602,10.91,10.171c0,0,5.398,1.932,10.569,8.693
				c2.556,3.343,4.418,5.428,6.067,6.751c3.652,2.93,7.385,4.102,7.385,4.102c3.145,0.731,4.602,0.128,4.901,0.938
				c0.298,0.81-4.602,0.341-4.602,0.341c1.577,1.662,5.412,2.131,4.858,2.813c-0.554,0.682-4.517-0.81-4.517-0.81
				s1.832,1.875,2.983,2.514c1.151,0.639,0.469,1.662-0.767,0.98c-1.236-0.682-4.645-2.77-4.645-2.77s2.599,1.96,3.196,2.94
				c0.597,0.98-0.597,0.639-2.301-0.682c-1.705-1.321-4.659-2.827-4.659-2.827c-2.188-1.051-1.165,2.841-2.017,4.091
				c-0.852,1.25-1.335-1.165-1.222-3.097c0.114-1.932-3.58-10.057-7.898-11.364c-4.318-1.307-10.54-8.068-10.54-8.068
				c-6.989-0.938-12.529-8.012-12.529-8.012c-1.84-0.568-5.022,2.727-5.022,5.455c-0.341,0.682,0.341,1.705,0.682,2.727
				c2.046,3.068,3.75,6.137,5.796,9.205c2.386,3.75,4.773,6.818,7.159,10.568c4.091,6.818,4.432,14.319,5.455,21.819
				c-1.705,5.796-0.682,11.932,3.75,16.364c1.023,0.682,1.705,1.705,2.727,2.727c0.682,1.023,0.682,2.386,0,3.409
				c-1.364,1.705-4.432,1.023-6.478,0c-1.705-1.023-4.091,0-5.796-1.023c-0.682-0.682-0.341-1.705-0.341-2.386
				c1.705-6.137,0-12.614-1.705-18.751c-1.023-3.068-2.386-5.796-3.068-9.205c-0.341-2.727,0-7.841-3.75-7.5
				c-1.705,0.341-3.068,1.705-4.773,2.046c-3.068-2.046-3.068-6.137-5.455-8.864c-0.682-0.341-1.023-1.023-1.705-1.705
				c-8.182-6.818-13.978,5.114-18.41,11.25c-2.046,3.068-5.455-0.682-8.182-0.682c-2.386,2.387-6.137,4.091-7.5,7.159
				c-2.727,5.114-7.159,8.864-9.887,13.637c-1.023,2.386-2.386,4.432-3.75,6.477c-1.023,1.705-0.341,3.75-1.023,5.796
				c-0.341,0.682-0.682,0.682-1.705,0.682c-0.682,0-1.023,0.682-1.705,1.023c-2.727,1.705-5.796,1.023-8.523-0.682
				c-0.682-0.341,0.341-1.705,0.682-2.386C220.872,425.627,225.304,423.241,227.691,418.809z"/>
		</g>
		<path style="fill:#EEEEEE;" d="M444.005,358.339c0.025-0.955-0.158-2.191-0.447-3.805c-0.785-4.383-1.374-7.719-1.962-10.205
			s-2.29-1.701-4.776-4.383c-2.486-2.682-7.065-4.71-9.944-6.934c-2.878-2.224-2.747-1.897-5.495-2.617
			c-2.747-0.72-9.616-3.075-9.911-3.434s0-2.682,0-2.682c1.635-0.229,1.962-3.958,1.995-5.037c0.033-1.079-0.262-0.523-1.079,0.098
			c-0.818,0.621-0.196-1.505,0.327-4.71c0.523-3.206-2.42-6.869-8.145-6.869c-5.724,0-6.411,3.107-7,5.462
			c-0.589,2.355,0.164,4.677,0.164,4.677c-0.916-0.458-0.425,1.341-0.556,3.206c-0.131,1.864,0.916,2.29,0.916,2.29
			c-0.131,2.093,1.341,5.495,1.341,5.495c-1.406-0.229-2.191,1.308-5.822,3.271c-3.631,1.963-5.168,4.056-6.673,7.261
			c-1.505,3.206-0.131,6.575-0.131,6.575c-5.659,6.411-2.6,6.476-5.471,8.243c-2.87,1.766-3.753,2.355-7.286,5.691
			s-6.629,0.452-6.629,0.452c-1.84-1.256-4.511-2.209-3.781-0.627c0.73,1.582,5.178,2.876,2.845,4.414c0,0-3.236,2.026-5.55,2.927
			c-2.314,0.901-3.357,1.877-2.036,1.868c1.321-0.009,4.796-1.415,4.796-1.415s-4.08,2.13-5.485,2.946s-0.799,2.095,0.514,1.338
			c1.313-0.758,4.249-1.457,4.249-1.457s-3.819,3.03-3.474,3.981c0.345,0.951,3.079-2.559,5.654-3.132c0,0-3.365,4.561-2.389,4.746
			c0.976,0.185,1.244-1.611,3.828-4.284c0,0,2.838-3.005,7.95-4.595c0,0,7.589-1.439,11.775-5.888
			c4.187-4.448,4.318-7.065,6.28-9.944c1.962-2.878,0.523-5.233,3.271-2.617s4.972,9.551,3.271,12.822
			c-1.701,3.271-11.775,12.953-13.869,16.747c-2.093,3.794-3.663,9.028-7.589,11.906c-3.925,2.878-1.832,1.962-3.794,4.056
			c-1.962,2.093-3.533,0-8.504,9.028c-4.972,9.028-7.589,15.177-11.121,17.009c0,0-1.112-0.425-6.411,4.972
			c0,0-4.514,1.374-6.476,4.612c0,0,5.593,5.986,8.93,3.925c3.336-2.061,1.374-0.883,4.612-1.668
			c3.238-0.785,1.766-1.766,2.944-4.219c1.178-2.453,1.864-5.397,4.318-7.85c2.453-2.453,9.224-5.888,13.738-13.934
			c4.514-8.046,2.159-3.042,5.495-6.28c3.336-3.238,6.738-5.332,10.074-8.937c0,0,4.71,3.671,6.411,2.362
			c1.701-1.308,9.616-11.383,11.448-10.794c1.832,0.589,2.421,0.523,3.467,2.878c1.047,2.355-0.85,2.224-0.458,6.411
			c0.393,4.187-3.205,2.421-0.065,5.233c0,0-1.635,9.486-5.168,14.719c0,0-2.29,2.159-3.402,5.953
			c-1.112,3.794-0.72,4.71-3.794,7.785c-3.075,3.075-4.383,8.046-0.393,9.486c3.991,1.439,7,0.523,8.177-2.682
			c1.177-3.206,0.85-5.822,1.701-8.046c0.85-2.224,3.14-6.542,3.402-9.682c0.262-3.14,9.093-9.093,11.644-15.57
			c2.551-6.476,0.589-5.56,2.159-7.719c1.57-2.159,4.579-11.121,3.86-14.85s0.523-7.392-2.878-9.159
			c-3.402-1.766,0.523-16.2,0.327-19.646c4.121,1.745,7,1.329,7,1.329c1.439,2.813,3.794,5.299,3.794,7.654
			c0,0.936,0.105,1.724,0.231,2.338c-4.181,1.465-7.181,5.444-7.181,10.125c0,5.925,4.803,10.729,10.729,10.729
			c5.925,0,10.729-4.803,10.729-10.729C453.225,363.547,449.216,359.073,444.005,358.339z"/>
		<path style="fill:#EEEEEE;" d="M160.426,357.201c-0.482-0.532-2.19-2.197-5.221-2.862c-3.628-0.795-10.139-1.64-11.53-1.193
			c0,0,1.541-1.988,2.386-3.628s0.547-2.137,0.994-3.479c0.447-1.342,1.093-0.696,1.292-2.883c0.199-2.187,0.497-6.014-2.435-8.2
			c-2.932-2.187-6.163-2.833-9.095-0.596c-2.932,2.236-3.38,5.964-3.479,7.057c0,0-0.447,0.05-0.745,1.441
			c-0.298,1.392,0.099,2.336,0.099,2.336s-0.248,1.441-1.292,1.69s-1.541-0.447-5.517,1.64c-3.976,2.087-9.401,5.328-11.828,6.461
			c-7.455,3.479-7.482,5.635-7.482,5.635s-6.104,1.865-12.21,9.112c-3.019,3.583-5.199,5.804-7.102,7.189
			c-4.216,3.066-8.428,4.173-8.428,4.173c-3.536,0.647-5.125-0.1-5.499,0.785c-0.374,0.885,5.1,0.621,5.1,0.621
			c-1.841,1.765-6.131,2.085-5.55,2.872c0.58,0.787,5.066-0.663,5.066-0.663s-2.136,1.989-3.449,2.639
			c-1.313,0.65-0.609,1.824,0.801,1.13c1.41-0.693,5.311-2.836,5.311-2.836s-2.994,2.043-3.709,3.102
			c-0.715,1.059,0.63,0.742,2.595-0.637c1.965-1.379,5.33-2.899,5.33-2.899c2.488-1.054,1.146,3.221,2.028,4.656
			c0.882,1.435,1.546-1.225,1.521-3.379c-0.025-2.154,1.443-6.509,6.314-7.736c0,0,4.354-2.094,7.734-5.971
			c0,0-2.989,4.295-3.711,6.494c0,0-8.35,25.049-9.012,32.603c0,0-5.169,0.133-7.157,1.59c-1.988,1.458-11.265,6.229-11.663,10.072
			c-0.398,3.843,2.518,7.289,6.097,4.241c3.578-3.048,9.675-7.289,9.675-7.289s5.566,4.506,9.41,0.795
			c3.844-3.711,4.109-5.699,4.109-5.699l9.277-0.795c0,0,1.59-5.193,1.988-10.681c0.398-5.488,3.181-12.115,3.181-12.115
			s10.868,10.735,12.326,8.88c1.458-1.855,2.783-7.952,3.976-7.952c1.193,0,1.723,0,1.06,4.639
			c-0.663,4.639,0.445,13.386,0.289,16.434c-0.156,3.048-2.674,9.012-3.072,12.193c-0.398,3.181-2.253,6.892,0.398,7.157
			c2.651,0.265,3.843,2.916,6.759,1.988c2.916-0.928,4.109,0.265,3.843-2.518c-0.265-2.783-3.843-4.771-3.048-8.35
			s0.53-9.277,1.988-14.314c1.458-5.036,3.446-17.494,2.121-22.265c-1.325-4.771-11.53-10.205-13.253-11
			c0,0,5.036-7.488,7.322-11.663c2.286-4.175,2.684-7.554,5.467-7.157c2.783,0.398,6.362-1.093,8.051-1.193
			c0,0,0.806,1.231,2.548,1.765c-2.04,1.668-3.343,4.204-3.343,7.044c0,5.023,4.072,9.095,9.095,9.095
			c5.023,0,9.095-4.072,9.095-9.095C166.239,361.818,163.827,358.518,160.426,357.201z"/>
		<path style="fill:#EEEEEE;" d="M366.164,225.552c0-2.387,1.909-5.927,3.978-5.927c2.068,0,3.779,1.551,3.62,0.239
			c-0.159-1.313,1.472-7.399,1.392-9.229c-0.08-1.83,1.273-5.887,1.591-7.2c0.318-1.313,0.159-3.143-0.955-5.967
			c-1.114-2.824-0.159-6.842-0.756-8.075c-0.597-1.233-0.477-6.842,0-9.547c0.477-2.705,4.734-4.773,6.444-6.365
			c1.71-1.591,6.563-2.546,6.921-3.103s0.796-3.461,0.04-4.097c-0.756-0.636-1.511-3.779-1.313-4.097
			c0.171-0.273,0.865,0.271,1.061,0.433c-0.1-0.13-0.305-0.641-0.305-2.66c0-2.665,2.188-7.12,7.001-7.12
			c4.813,0,5.609,5.37,5.609,7.16c0,1.79-0.318,2.745-0.318,2.745c0.796-0.636,0.915-0.199,0.796,1.631
			c-0.119,1.83-1.273,2.228-1.273,2.228c-0.159,2.029-1.591,2.665-1.989,4.018c-0.398,1.352,0.994,1.061,0.994,1.061
			s9.229,3.819,10.82,6.365c1.591,2.546,2.864,5.304,3.5,9.016c0.637,3.713,2.864,1.803,5.198,9.122c0,0,4.349,3.819,5.091,8.592
			c0.743,4.773,6.046,6.577,4.986,10.395c-0.857,3.085-1.649,6.555-4.55,8.334c-1.683,2.251-4.37,3.708-7.397,3.708
			c-5.098,0-9.231-4.133-9.231-9.231c0-5.098,4.133-9.231,9.231-9.231c1.223,0,2.39,0.24,3.458,0.672v-0.001
			c0,0-4.79-4.17-6.239-9.367c0,0-6.275-9.229-7.389-13.047c0,0-2.599,1.538-3.235,9.812c-0.636,8.274,1.962,7.319,0.849,13.471
			c-1.114,6.152-3.62,9.533-8.473,9.812c0,0,0.08,0.875,1.979,1.392s3.073-0.179,3.073,0.835c0,1.014-4.256,0.279-4.336,0.633
			c-0.079,0.355,1.054,1.256,2.407,1.952c1.352,0.696,4.555,0.298,4.634,0.995c0.08,0.696-3.401,0.418-3.401,0.418
			s0.159,0.159,1.213,0.716c1.054,0.557,2.586,0.835,2.287,1.472c-0.298,0.637-5.171-0.557-5.171-0.557
			c0.537,0.318,0.457,0.497-0.119,0.855c-0.577,0.358-3.64-0.995-4.077-1.233c-0.437-0.239-1.273,0.358-1.551,1.87
			c-0.278,1.512-0.875,2.466-1.193,4.535c-0.318,2.068-0.239,7.399-0.597,9.547c-0.358,2.148,0.239,2.188,3.66,4.455
			c3.421,2.267,5.768,8.115,7.797,11.376c2.029,3.262,2.864,2.665,5.688,2.665s3.938,0.835,3.938,3.978
			c0,3.142-0.636,2.745-0.517,5.012c0.119,2.267,1.432,1.949,1.392,5.41c-0.04,3.461-2.904,6.086-4.256,6.126
			c-1.353,0.04-2.546-1.472-2.466-3.063c0.079-1.591-1.591-9.348-4.137-10.859c-2.546-1.512-1.193-2.068-1.909-3.341
			c-0.716-1.273-4.773-4.137-6.245-5.887c-1.472-1.75-10.223-10.979-11.138-11.695s-0.716-5.489-1.432-6.365
			c-0.716-0.875-1.313-1.87-1.87-4.256c-0.557-2.387-0.239-5.37-0.756-6.444c-0.517-1.074-2.068-2.904-1.79-0.358
			c0.278,2.546-0.557,1.83-1.353,5.131c-0.796,3.302-1.949,3.699-4.177,3.699c-2.228,0-3.58-2.585-3.58-4.216
			s0.716-2.864,0.756-3.819C368.113,230.126,366.164,227.938,366.164,225.552z"/>
		<path style="fill:#EEEEEE;" d="M243.01,189.699c0.361,2.438,0.723,10.657,1.987,11.831c1.264,1.174,1.626,4.154,5.87,3.161
			c4.245-0.993,7.405-0.903,7.405-0.903s-0.723,7.586-1.987,9.392c-1.264,1.806-1.987,3.342-0.361,5.148
			c1.626,1.806-0.181,3.071-0.09,5.328s-0.452,3.703-0.181,6.322c0.271,2.619,0.632,6.773,1.806,9.121
			c1.174,2.348-0.271,5.509,0.361,7.225c0.632,1.716,5.328,13.727,12.553,18.153c0,0,2.619,2.438,1.626,4.335
			c-0.993,1.896-1.397,5.057-2.776,6.231c-1.379,1.174-2.643,2.168-2.733,4.064c-0.09,1.897,0.181,3.42,4.245,3.42
			c4.064,0,6.683,0.463,6.864-2.427c0.181-2.89,0.542-2.438,2.98-3.432c2.438-0.993,2.89-2.077,2.89-2.077s0.452,4.967,2.89,4.967
			c2.438,0,6.502-0.723,7.225-6.502s-1.626-7.767-1.084-10.115c0.542-2.348,2.348-2.89-1.264-6.232
			c-3.612-3.341-4.606-4.154-5.509-6.502c-0.903-2.348-3.793-10.115-5.148-12.824c-1.355-2.709-3.703-0.993-3.612-3.703
			c0.09-2.709,2.258-3.703,2.258-3.703s3.161,3.612,3.206,1.987c0.045-1.626,7.135-18.423,8.128-20.275
			c0.046-0.086,0.085-0.197,0.121-0.318c1.693,1.153,3.738,1.828,5.941,1.828c5.836,0,10.566-4.731,10.566-10.566
			c0-4.21-2.462-7.843-6.025-9.542c-0.199-0.57-0.412-1.174-0.625-1.767c-0.813-2.258-5.057-5.599-5.057-5.599
			c-0.361-0.542-1.174-2.258-2.348-5.78c-1.174-3.522-2.98-3.522-4.245-5.148c-1.264-1.626-0.993-5.057-5.961-7.767
			c-4.967-2.709-11.188-5.148-13-4.335c-1.812,0.813-2.624,0.181-1.27-1.535c1.355-1.716,1.445-4.967,0.632-4.696
			c-0.813,0.271-0.632-0.361-0.452-1.987c0.181-1.626,0.361-7.857-5.419-7.857c-5.78,0-7.767,2.89-8.038,5.509
			c-0.271,2.619-0.903,8.58,0,11.108c0,0-3.703,1.084-5.057,2.935c-1.355,1.851-5.509,4.109-6.141,7.451
			c-0.632,3.342,0.542,8.76,0.542,8.76S242.649,187.26,243.01,189.699z M288.617,188.028c0.497,0.632,2.258,2.574,2.574,3.612
			c0.158,0.52,0.385,1.131,0.571,1.611c-0.911,0.473-1.744,1.074-2.476,1.78c0.035-0.898,0.164-1.791,0.37-2.488
			C290.107,191.008,288.617,188.028,288.617,188.028z M267.981,243.795c0-1.445,0.542-3.748,0.542-3.748s0-0.271,1.942,1.535
			c1.942,1.806,7.451,8.354,9.754,11.515c2.303,3.161,0.903,5.419,0.677,6.683c-0.226,1.264,1.355,5.464,1.355,5.464
			s-2.393-2.619-3.296-2.619s-2.89-2.664-4.967-4.741c-2.077-2.077-1.084-4.741-1.897-8.218
			C271.277,246.188,267.981,245.24,267.981,243.795z M253.576,191.279c0-1.942-0.316-4.245-0.316-4.245s2.98,4.967,4.29,10.883
			c0,0-2.664,0-3.251,0.406c0,0-0.452-0.993-2.664-1.174C249.422,196.969,253.576,193.221,253.576,191.279z"/>
	</g>
</g>
<g id="DESIGNED_BY_FREEPIK">
	<g>
		<g>
			<path style="fill:#424242;" d="M171.572,485.057v-0.181c-0.245,0.28-0.487,0.509-0.725,0.684
				c-0.238,0.176-0.497,0.31-0.775,0.401c-0.278,0.093-0.582,0.137-0.911,0.137c-0.437,0-0.841-0.092-1.213-0.277
				c-0.372-0.185-0.693-0.449-0.965-0.792c-0.272-0.343-0.478-0.745-0.618-1.209c-0.14-0.464-0.21-0.964-0.21-1.503
				c0-1.14,0.279-2.03,0.835-2.666c0.557-0.636,1.289-0.955,2.198-0.955c0.525,0,0.969,0.091,1.329,0.27
				c0.361,0.181,0.713,0.459,1.056,0.832v-2.692c0-0.374,0.074-0.657,0.224-0.848c0.149-0.192,0.361-0.287,0.638-0.287
				c0.276,0,0.488,0.088,0.638,0.264c0.149,0.176,0.224,0.435,0.224,0.778v8.043c0,0.348-0.08,0.608-0.24,0.782
				c-0.16,0.173-0.367,0.26-0.621,0.26c-0.249,0-0.455-0.09-0.618-0.27C171.653,485.648,171.572,485.391,171.572,485.057z
				 M167.984,482.379c0,0.494,0.077,0.915,0.23,1.262c0.154,0.348,0.364,0.609,0.631,0.784c0.267,0.177,0.559,0.265,0.875,0.265
				c0.321,0,0.613-0.084,0.879-0.251c0.265-0.166,0.476-0.423,0.634-0.767c0.158-0.345,0.237-0.777,0.237-1.293
				c0-0.486-0.079-0.903-0.237-1.254c-0.158-0.349-0.372-0.616-0.641-0.802c-0.27-0.184-0.565-0.276-0.885-0.276
				c-0.334,0-0.632,0.095-0.895,0.284c-0.263,0.189-0.466,0.46-0.611,0.815C168.056,481.5,167.984,481.911,167.984,482.379z"/>
			<path style="fill:#424242;" d="M179.613,482.84h-3.567c0.004,0.414,0.088,0.779,0.251,1.095c0.162,0.317,0.379,0.555,0.648,0.715
				c0.27,0.161,0.567,0.24,0.892,0.24c0.218,0,0.417-0.025,0.598-0.076c0.181-0.052,0.355-0.131,0.525-0.241
				c0.169-0.108,0.325-0.226,0.467-0.351c0.142-0.125,0.327-0.295,0.554-0.508c0.093-0.08,0.227-0.12,0.402-0.12
				c0.187,0,0.338,0.052,0.453,0.154c0.116,0.103,0.174,0.247,0.174,0.434c0,0.165-0.065,0.357-0.194,0.578
				c-0.13,0.22-0.325,0.432-0.585,0.635c-0.261,0.202-0.588,0.37-0.982,0.504c-0.394,0.134-0.847,0.201-1.359,0.201
				c-1.171,0-2.082-0.334-2.732-1.002c-0.65-0.668-0.975-1.574-0.975-2.718c0-0.539,0.08-1.039,0.24-1.5
				c0.161-0.462,0.395-0.857,0.701-1.186c0.307-0.33,0.686-0.582,1.136-0.758c0.45-0.176,0.949-0.263,1.496-0.263
				c0.712,0,1.324,0.149,1.833,0.451c0.511,0.3,0.893,0.689,1.146,1.165c0.253,0.477,0.381,0.963,0.381,1.456
				c0,0.46-0.132,0.756-0.394,0.893C180.46,482.772,180.09,482.84,179.613,482.84z M176.046,481.805h3.307
				c-0.044-0.624-0.213-1.091-0.505-1.4c-0.292-0.31-0.676-0.464-1.152-0.464c-0.454,0-0.828,0.157-1.119,0.47
				C176.286,480.725,176.109,481.19,176.046,481.805z"/>
			<path style="fill:#424242;" d="M187.923,483.714c0,0.504-0.122,0.935-0.367,1.293c-0.245,0.359-0.607,0.631-1.086,0.815
				c-0.479,0.185-1.061,0.277-1.747,0.277c-0.655,0-1.216-0.1-1.684-0.301c-0.467-0.2-0.813-0.451-1.035-0.751
				c-0.223-0.302-0.334-0.602-0.334-0.906c0-0.201,0.071-0.372,0.214-0.514c0.142-0.142,0.323-0.214,0.541-0.214
				c0.191,0,0.338,0.047,0.44,0.14c0.103,0.094,0.201,0.225,0.294,0.394c0.187,0.326,0.411,0.567,0.672,0.729
				c0.26,0.16,0.615,0.24,1.066,0.24c0.365,0,0.665-0.082,0.898-0.244c0.234-0.164,0.35-0.349,0.35-0.559
				c0-0.321-0.121-0.554-0.364-0.701c-0.243-0.147-0.643-0.288-1.199-0.422c-0.628-0.155-1.139-0.319-1.533-0.491
				c-0.394-0.17-0.709-0.397-0.945-0.677c-0.236-0.281-0.354-0.626-0.354-1.036c0-0.365,0.109-0.71,0.327-1.036
				c0.218-0.324,0.54-0.584,0.966-0.777c0.424-0.194,0.938-0.291,1.539-0.291c0.472,0,0.897,0.049,1.272,0.148
				c0.377,0.097,0.691,0.229,0.942,0.394c0.252,0.164,0.443,0.347,0.574,0.547c0.131,0.201,0.197,0.396,0.197,0.589
				c0,0.209-0.07,0.381-0.21,0.514c-0.14,0.133-0.339,0.201-0.598,0.201c-0.187,0-0.346-0.054-0.477-0.161
				c-0.131-0.106-0.282-0.267-0.451-0.48c-0.138-0.178-0.3-0.321-0.487-0.428c-0.187-0.107-0.441-0.16-0.762-0.16
				c-0.33,0-0.603,0.069-0.822,0.211c-0.218,0.139-0.327,0.314-0.327,0.523c0,0.192,0.08,0.349,0.24,0.471
				c0.161,0.123,0.376,0.225,0.649,0.304c0.272,0.08,0.645,0.177,1.122,0.293c0.565,0.139,1.027,0.304,1.386,0.495
				c0.358,0.191,0.63,0.418,0.816,0.678C187.831,483.083,187.923,483.38,187.923,483.714z"/>
			<path style="fill:#424242;" d="M189.786,477.837c-0.254,0-0.471-0.078-0.651-0.234c-0.18-0.155-0.27-0.376-0.27-0.661
				c0-0.259,0.092-0.47,0.277-0.638c0.185-0.168,0.4-0.251,0.645-0.251c0.236,0,0.445,0.076,0.628,0.227
				c0.183,0.152,0.274,0.372,0.274,0.661c0,0.281-0.09,0.5-0.268,0.658C190.243,477.757,190.031,477.837,189.786,477.837z
				 M190.689,479.72v5.27c0,0.365-0.087,0.642-0.261,0.829c-0.174,0.187-0.394,0.28-0.661,0.28c-0.268,0-0.485-0.095-0.651-0.287
				c-0.167-0.192-0.25-0.466-0.25-0.822v-5.217c0-0.36,0.083-0.632,0.25-0.815c0.167-0.183,0.384-0.274,0.651-0.274
				c0.268,0,0.487,0.091,0.661,0.274C190.602,479.141,190.689,479.395,190.689,479.72z"/>
			<path style="fill:#424242;" d="M198.678,480.021v5.297c0,0.606-0.065,1.127-0.195,1.564c-0.128,0.435-0.336,0.797-0.621,1.082
				c-0.285,0.284-0.658,0.497-1.118,0.634c-0.461,0.139-1.034,0.207-1.721,0.207c-0.628,0-1.189-0.088-1.684-0.264
				c-0.494-0.177-0.874-0.403-1.142-0.681c-0.267-0.278-0.401-0.565-0.401-0.859c0-0.223,0.076-0.405,0.228-0.544
				c0.151-0.141,0.334-0.211,0.547-0.211c0.267,0,0.501,0.118,0.702,0.354c0.098,0.12,0.199,0.243,0.304,0.365
				c0.105,0.123,0.221,0.227,0.348,0.315c0.127,0.086,0.28,0.15,0.458,0.193c0.178,0.041,0.384,0.063,0.615,0.063
				c0.472,0,0.839-0.065,1.099-0.197c0.261-0.131,0.443-0.315,0.548-0.551c0.105-0.235,0.166-0.488,0.184-0.758
				c0.018-0.27,0.031-0.703,0.04-1.3c-0.281,0.393-0.604,0.692-0.972,0.896c-0.367,0.205-0.805,0.307-1.312,0.307
				c-0.61,0-1.143-0.156-1.6-0.468c-0.456-0.312-0.807-0.748-1.051-1.309c-0.245-0.562-0.367-1.209-0.367-1.944
				c0-0.548,0.074-1.043,0.223-1.483c0.15-0.442,0.362-0.813,0.638-1.116c0.276-0.303,0.594-0.531,0.955-0.685
				c0.361-0.153,0.757-0.23,1.189-0.23c0.516,0,0.964,0.1,1.343,0.297c0.378,0.199,0.73,0.51,1.055,0.933v-0.248
				c0-0.316,0.078-0.561,0.234-0.735c0.156-0.173,0.357-0.26,0.602-0.26c0.352,0,0.585,0.115,0.701,0.344
				C198.619,479.258,198.678,479.589,198.678,480.021z M193.393,482.332c0,0.739,0.161,1.298,0.484,1.677
				c0.323,0.379,0.741,0.568,1.253,0.568c0.303,0,0.589-0.082,0.858-0.244c0.27-0.163,0.489-0.408,0.659-0.735
				c0.169-0.328,0.254-0.725,0.254-1.192c0-0.743-0.163-1.323-0.491-1.737c-0.328-0.414-0.758-0.622-1.293-0.622
				c-0.521,0-0.938,0.199-1.252,0.595C193.55,481.038,193.393,481.602,193.393,482.332z"/>
			<path style="fill:#424242;" d="M201.576,479.693v0.22c0.32-0.423,0.671-0.734,1.052-0.932c0.381-0.198,0.818-0.297,1.313-0.297
				c0.481,0,0.911,0.105,1.29,0.315c0.378,0.21,0.662,0.506,0.848,0.887c0.121,0.223,0.198,0.464,0.234,0.722
				c0.036,0.259,0.054,0.588,0.054,0.989v3.393c0,0.365-0.084,0.642-0.251,0.829c-0.167,0.187-0.384,0.28-0.651,0.28
				c-0.272,0-0.492-0.095-0.662-0.287c-0.17-0.192-0.254-0.466-0.254-0.822v-3.039c0-0.601-0.084-1.061-0.251-1.379
				c-0.167-0.318-0.5-0.478-0.999-0.478c-0.325,0-0.621,0.097-0.888,0.291c-0.267,0.194-0.463,0.461-0.588,0.799
				c-0.089,0.272-0.133,0.779-0.133,1.523v2.285c0,0.37-0.086,0.648-0.257,0.832c-0.171,0.185-0.393,0.277-0.665,0.277
				c-0.263,0-0.479-0.095-0.648-0.287c-0.169-0.192-0.254-0.466-0.254-0.822v-5.27c0-0.348,0.076-0.607,0.227-0.779
				c0.152-0.171,0.359-0.257,0.621-0.257c0.161,0,0.306,0.038,0.435,0.114c0.128,0.076,0.233,0.19,0.31,0.34
				C201.537,479.29,201.576,479.475,201.576,479.693z"/>
			<path style="fill:#424242;" d="M212.671,482.84h-3.567c0.005,0.414,0.088,0.779,0.251,1.095c0.162,0.317,0.378,0.555,0.648,0.715
				c0.269,0.161,0.566,0.24,0.891,0.24c0.218,0,0.418-0.025,0.598-0.076c0.18-0.052,0.355-0.131,0.525-0.241
				c0.169-0.108,0.324-0.226,0.468-0.351c0.142-0.125,0.327-0.295,0.554-0.508c0.093-0.08,0.227-0.12,0.401-0.12
				c0.187,0,0.339,0.052,0.454,0.154c0.116,0.103,0.173,0.247,0.173,0.434c0,0.165-0.064,0.357-0.194,0.578
				c-0.13,0.22-0.324,0.432-0.585,0.635c-0.261,0.202-0.587,0.37-0.982,0.504c-0.394,0.134-0.848,0.201-1.36,0.201
				c-1.171,0-2.082-0.334-2.733-1.002c-0.649-0.668-0.975-1.574-0.975-2.718c0-0.539,0.08-1.039,0.24-1.5
				c0.16-0.462,0.395-0.857,0.702-1.186c0.307-0.33,0.686-0.582,1.135-0.758c0.45-0.176,0.949-0.263,1.497-0.263
				c0.712,0,1.323,0.149,1.833,0.451c0.51,0.3,0.892,0.689,1.146,1.165c0.254,0.477,0.381,0.963,0.381,1.456
				c0,0.46-0.131,0.756-0.394,0.893C213.518,482.772,213.148,482.84,212.671,482.84z M209.104,481.805h3.306
				c-0.044-0.624-0.212-1.091-0.504-1.4c-0.292-0.31-0.676-0.464-1.152-0.464c-0.455,0-0.828,0.157-1.12,0.47
				C209.343,480.725,209.166,481.19,209.104,481.805z"/>
			<path style="fill:#424242;" d="M220.105,485.057v-0.181c-0.245,0.28-0.486,0.509-0.725,0.684
				c-0.238,0.176-0.496,0.31-0.775,0.401c-0.278,0.093-0.582,0.137-0.911,0.137c-0.437,0-0.841-0.092-1.213-0.277
				c-0.372-0.185-0.694-0.449-0.965-0.792c-0.272-0.343-0.478-0.745-0.618-1.209c-0.14-0.464-0.211-0.964-0.211-1.503
				c0-1.14,0.278-2.03,0.835-2.666c0.557-0.636,1.29-0.955,2.198-0.955c0.525,0,0.969,0.091,1.329,0.27
				c0.361,0.181,0.713,0.459,1.055,0.832v-2.692c0-0.374,0.075-0.657,0.224-0.848c0.149-0.192,0.362-0.287,0.638-0.287
				c0.276,0,0.488,0.088,0.638,0.264c0.149,0.176,0.224,0.435,0.224,0.778v8.043c0,0.348-0.08,0.608-0.24,0.782
				c-0.16,0.173-0.367,0.26-0.621,0.26c-0.249,0-0.455-0.09-0.618-0.27C220.186,485.648,220.105,485.391,220.105,485.057z
				 M216.518,482.379c0,0.494,0.076,0.915,0.23,1.262c0.154,0.348,0.364,0.609,0.632,0.784c0.267,0.177,0.559,0.265,0.874,0.265
				c0.321,0,0.614-0.084,0.878-0.251c0.265-0.166,0.477-0.423,0.635-0.767c0.158-0.345,0.237-0.777,0.237-1.293
				c0-0.486-0.079-0.903-0.237-1.254c-0.158-0.349-0.372-0.616-0.641-0.802c-0.27-0.184-0.565-0.276-0.885-0.276
				c-0.333,0-0.632,0.095-0.895,0.284c-0.262,0.189-0.466,0.46-0.611,0.815C216.59,481.5,216.518,481.911,216.518,482.379z"/>
			<path style="fill:#424242;" d="M227.559,477.014v2.785c0.343-0.356,0.692-0.629,1.049-0.818c0.356-0.189,0.798-0.284,1.323-0.284
				c0.606,0,1.136,0.143,1.593,0.43c0.456,0.288,0.81,0.705,1.062,1.25c0.251,0.545,0.378,1.192,0.378,1.941
				c0,0.552-0.07,1.058-0.21,1.519c-0.141,0.461-0.344,0.861-0.611,1.198c-0.267,0.339-0.591,0.601-0.972,0.786
				c-0.381,0.185-0.801,0.277-1.259,0.277c-0.281,0-0.545-0.033-0.792-0.1c-0.248-0.067-0.458-0.154-0.632-0.264
				c-0.173-0.109-0.321-0.221-0.444-0.337c-0.123-0.115-0.284-0.29-0.485-0.521v0.181c0,0.343-0.083,0.602-0.247,0.779
				c-0.164,0.176-0.374,0.263-0.628,0.263c-0.258,0-0.464-0.087-0.618-0.263c-0.154-0.176-0.23-0.436-0.23-0.779v-7.964
				c0-0.37,0.075-0.649,0.223-0.838c0.149-0.189,0.358-0.284,0.625-0.284c0.281,0,0.497,0.09,0.648,0.27
				C227.483,476.424,227.559,476.68,227.559,477.014z M227.646,482.432c0,0.726,0.166,1.283,0.498,1.672
				c0.332,0.39,0.767,0.586,1.306,0.586c0.458,0,0.854-0.199,1.186-0.598c0.332-0.399,0.498-0.97,0.498-1.714
				c0-0.481-0.068-0.896-0.207-1.243c-0.139-0.348-0.334-0.616-0.588-0.805c-0.254-0.189-0.551-0.284-0.889-0.284
				c-0.347,0-0.657,0.095-0.929,0.284c-0.272,0.189-0.485,0.463-0.641,0.822C227.724,481.511,227.646,481.938,227.646,482.432z"/>
			<path style="fill:#424242;" d="M235.328,486.327l0.167-0.408l-2.245-5.651c-0.138-0.324-0.207-0.561-0.207-0.708
				c0-0.156,0.04-0.3,0.12-0.433c0.08-0.134,0.19-0.241,0.33-0.321c0.141-0.081,0.286-0.121,0.438-0.121
				c0.262,0,0.461,0.084,0.595,0.251c0.134,0.167,0.251,0.406,0.354,0.718l1.543,4.489l1.463-4.175
				c0.115-0.337,0.22-0.603,0.314-0.795c0.093-0.192,0.192-0.321,0.297-0.387c0.105-0.067,0.253-0.101,0.445-0.101
				c0.139,0,0.271,0.036,0.398,0.111c0.127,0.073,0.225,0.172,0.294,0.297c0.069,0.124,0.104,0.255,0.104,0.394
				c-0.018,0.085-0.047,0.205-0.087,0.361c-0.04,0.155-0.089,0.315-0.147,0.474l-2.378,6.226c-0.205,0.547-0.406,0.977-0.602,1.289
				c-0.196,0.312-0.455,0.552-0.778,0.718c-0.323,0.168-0.758,0.251-1.306,0.251c-0.534,0-0.935-0.058-1.202-0.173
				c-0.268-0.117-0.401-0.328-0.401-0.635c0-0.209,0.063-0.371,0.191-0.484c0.126-0.113,0.315-0.171,0.564-0.171
				c0.098,0,0.195,0.014,0.288,0.041c0.116,0.026,0.216,0.04,0.3,0.04c0.209,0,0.374-0.031,0.495-0.094
				c0.12-0.062,0.228-0.17,0.324-0.324C235.093,486.852,235.204,486.625,235.328,486.327z"/>
		</g>
		<g>
			<path style="fill:#424242;" d="M261.748,478.842h0.435v-0.547c0-0.573,0.07-1.025,0.216-1.363
				c0.144-0.336,0.391-0.581,0.736-0.735c0.345-0.152,0.818-0.229,1.418-0.229c1.069,0,1.598,0.258,1.598,0.784
				c0,0.168-0.056,0.313-0.169,0.433c-0.108,0.119-0.241,0.18-0.392,0.18c-0.07,0-0.196-0.013-0.371-0.042
				c-0.167-0.023-0.318-0.039-0.438-0.039c-0.329,0-0.539,0.099-0.637,0.292c-0.089,0.194-0.137,0.47-0.137,0.833v0.434h0.445
				c0.697,0,1.042,0.209,1.042,0.63c0,0.295-0.089,0.486-0.276,0.566c-0.184,0.08-0.439,0.12-0.766,0.12h-0.445v4.833
				c0,0.359-0.084,0.633-0.26,0.822c-0.17,0.192-0.389,0.286-0.663,0.286c-0.258,0-0.472-0.094-0.646-0.286
				c-0.172-0.188-0.256-0.462-0.256-0.822v-4.833h-0.502c-0.273,0-0.48-0.059-0.629-0.184c-0.147-0.12-0.221-0.281-0.221-0.477
				C260.831,479.059,261.137,478.842,261.748,478.842"/>
			<path style="fill:#424242;" d="M267.719,483.466v1.525c0,0.368-0.093,0.646-0.263,0.83c-0.174,0.187-0.393,0.278-0.659,0.278
				c-0.269,0-0.483-0.092-0.652-0.282c-0.166-0.185-0.253-0.462-0.253-0.826v-5.08c0-0.82,0.295-1.23,0.887-1.23
				c0.305,0,0.523,0.095,0.657,0.287c0.133,0.192,0.207,0.474,0.223,0.85c0.216-0.376,0.439-0.657,0.667-0.85
				c0.234-0.192,0.536-0.287,0.921-0.287c0.386,0,0.754,0.095,1.115,0.287c0.363,0.192,0.543,0.448,0.543,0.763
				c0,0.221-0.078,0.408-0.229,0.549c-0.155,0.147-0.319,0.219-0.497,0.219c-0.07,0-0.233-0.044-0.487-0.126
				c-0.257-0.08-0.484-0.122-0.677-0.122c-0.267,0-0.487,0.072-0.655,0.209c-0.17,0.144-0.303,0.35-0.397,0.624
				c-0.091,0.278-0.154,0.609-0.192,0.988C267.735,482.454,267.719,482.919,267.719,483.466"/>
			<path style="fill:#424242;" d="M276.103,482.838h-3.569c0.006,0.414,0.087,0.781,0.249,1.096c0.165,0.314,0.38,0.553,0.651,0.715
				c0.271,0.16,0.565,0.239,0.892,0.239c0.218,0,0.417-0.023,0.598-0.078c0.179-0.049,0.355-0.13,0.524-0.24
				c0.17-0.107,0.323-0.224,0.467-0.352c0.142-0.123,0.328-0.293,0.556-0.506c0.095-0.08,0.228-0.122,0.4-0.122
				c0.189,0,0.339,0.052,0.457,0.156c0.117,0.104,0.171,0.247,0.171,0.434c0,0.165-0.063,0.357-0.188,0.576
				c-0.132,0.223-0.326,0.433-0.588,0.638c-0.263,0.201-0.59,0.371-0.983,0.502c-0.393,0.134-0.848,0.201-1.358,0.201
				c-1.175,0-2.085-0.332-2.734-1c-0.65-0.67-0.979-1.577-0.979-2.721c0-0.539,0.082-1.04,0.244-1.502
				c0.158-0.463,0.392-0.855,0.703-1.187c0.306-0.331,0.682-0.582,1.134-0.758c0.449-0.175,0.947-0.263,1.497-0.263
				c0.711,0,1.323,0.151,1.833,0.454c0.509,0.297,0.896,0.687,1.146,1.164c0.254,0.479,0.381,0.962,0.381,1.459
				c0,0.456-0.133,0.753-0.395,0.89C276.949,482.77,276.58,482.838,276.103,482.838 M272.534,481.801h3.307
				c-0.044-0.622-0.21-1.09-0.502-1.397c-0.294-0.311-0.674-0.464-1.154-0.464c-0.454,0-0.828,0.155-1.12,0.47
				C272.774,480.724,272.596,481.187,272.534,481.801"/>
			<path style="fill:#424242;" d="M283.69,482.838h-3.568c0.004,0.414,0.088,0.781,0.249,1.096c0.163,0.314,0.379,0.553,0.648,0.715
				c0.269,0.16,0.567,0.239,0.894,0.239c0.216,0,0.417-0.023,0.594-0.078c0.182-0.049,0.356-0.13,0.527-0.24
				c0.17-0.107,0.324-0.224,0.467-0.352c0.14-0.123,0.326-0.293,0.554-0.506c0.095-0.08,0.23-0.122,0.4-0.122
				c0.189,0,0.34,0.052,0.457,0.156c0.116,0.104,0.169,0.247,0.169,0.434c0,0.165-0.061,0.357-0.192,0.576
				c-0.124,0.223-0.32,0.433-0.584,0.638c-0.26,0.201-0.591,0.371-0.981,0.502c-0.392,0.134-0.85,0.201-1.361,0.201
				c-1.172,0-2.081-0.332-2.734-1c-0.65-0.67-0.977-1.577-0.977-2.721c0-0.539,0.082-1.04,0.245-1.502
				c0.159-0.463,0.393-0.855,0.701-1.187c0.306-0.331,0.684-0.582,1.135-0.758c0.449-0.175,0.95-0.263,1.497-0.263
				c0.71,0,1.321,0.151,1.838,0.454c0.506,0.297,0.89,0.687,1.14,1.164c0.253,0.479,0.383,0.962,0.383,1.459
				c0,0.456-0.135,0.753-0.395,0.89C284.535,482.77,284.166,482.838,283.69,482.838 M280.122,481.801h3.306
				c-0.045-0.622-0.214-1.09-0.503-1.397c-0.296-0.311-0.677-0.464-1.155-0.464c-0.454,0-0.827,0.155-1.12,0.47
				C280.36,480.724,280.181,481.187,280.122,481.801"/>
			<path style="fill:#424242;" d="M287.685,479.707v0.219c0.342-0.422,0.699-0.733,1.072-0.931c0.365-0.2,0.786-0.3,1.254-0.3
				c0.559,0,1.08,0.146,1.552,0.434c0.472,0.291,0.843,0.714,1.117,1.271c0.274,0.559,0.412,1.216,0.412,1.979
				c0,0.56-0.079,1.077-0.236,1.548c-0.157,0.47-0.378,0.863-0.653,1.181c-0.277,0.317-0.602,0.564-0.977,0.736
				c-0.381,0.17-0.782,0.256-1.215,0.256c-0.519,0-0.96-0.104-1.312-0.315c-0.354-0.205-0.691-0.516-1.014-0.918v2.738
				c0,0.799-0.292,1.203-0.875,1.203c-0.345,0-0.569-0.103-0.683-0.309c-0.107-0.21-0.164-0.509-0.164-0.908v-7.873
				c0-0.348,0.075-0.604,0.225-0.779c0.151-0.168,0.36-0.256,0.622-0.256c0.26,0,0.468,0.088,0.63,0.263
				C287.606,479.122,287.685,479.373,287.685,479.707 M291.261,482.357c0-0.482-0.075-0.896-0.221-1.24
				c-0.147-0.346-0.351-0.61-0.609-0.793c-0.258-0.185-0.55-0.279-0.867-0.279c-0.502,0-0.927,0.2-1.272,0.594
				c-0.346,0.398-0.52,0.982-0.52,1.754c0,0.722,0.172,1.289,0.517,1.692c0.343,0.403,0.764,0.604,1.275,0.604
				c0.302,0,0.584-0.089,0.842-0.262c0.261-0.178,0.468-0.441,0.622-0.793C291.183,483.281,291.261,482.855,291.261,482.357"/>
			<path style="fill:#424242;" d="M294.93,477.832c-0.255,0-0.47-0.08-0.649-0.236c-0.183-0.157-0.273-0.374-0.273-0.659
				c0-0.259,0.092-0.471,0.279-0.64c0.184-0.165,0.398-0.25,0.643-0.25c0.239,0,0.447,0.075,0.629,0.225
				c0.183,0.154,0.275,0.376,0.275,0.665c0,0.281-0.089,0.5-0.266,0.658C295.388,477.751,295.177,477.832,294.93,477.832
				 M295.833,479.716v5.277c0,0.363-0.087,0.639-0.26,0.824c-0.176,0.19-0.394,0.282-0.662,0.282c-0.268,0-0.482-0.094-0.653-0.286
				c-0.164-0.194-0.25-0.468-0.25-0.82v-5.224c0-0.359,0.086-0.629,0.25-0.812c0.171-0.186,0.385-0.275,0.653-0.275
				c0.268,0,0.486,0.089,0.662,0.275C295.746,479.139,295.833,479.394,295.833,479.716"/>
			<path style="fill:#424242;" d="M301.712,485.266l-1.606-2.649l-0.991,0.934v1.453c0,0.351-0.093,0.62-0.279,0.809
				c-0.181,0.192-0.398,0.286-0.637,0.286c-0.28,0-0.503-0.092-0.661-0.282c-0.159-0.185-0.242-0.462-0.242-0.826v-7.781
				c0-0.403,0.08-0.711,0.233-0.924c0.157-0.214,0.383-0.318,0.67-0.318c0.281,0,0.501,0.096,0.668,0.289
				c0.165,0.19,0.249,0.474,0.249,0.845v4.426l2.051-2.154c0.255-0.264,0.445-0.451,0.582-0.547
				c0.133-0.098,0.295-0.146,0.485-0.146c0.229,0,0.417,0.073,0.573,0.217c0.148,0.145,0.225,0.328,0.225,0.544
				c0,0.266-0.249,0.625-0.742,1.07l-0.968,0.888l1.87,2.942c0.136,0.22,0.238,0.383,0.298,0.497
				c0.059,0.112,0.091,0.225,0.091,0.325c0,0.29-0.08,0.517-0.24,0.686c-0.158,0.166-0.368,0.249-0.623,0.249
				c-0.223,0-0.396-0.057-0.516-0.18C302.083,485.797,301.916,485.578,301.712,485.266"/>
			<path style="fill:#424242;" d="M305.676,486.098c-0.275,0-0.512-0.089-0.713-0.268c-0.2-0.175-0.302-0.426-0.302-0.749
				c0-0.271,0.097-0.506,0.289-0.7c0.193-0.196,0.427-0.295,0.709-0.295c0.28,0,0.517,0.098,0.719,0.29
				c0.197,0.194,0.297,0.431,0.297,0.705c0,0.318-0.1,0.568-0.297,0.745C306.176,486.009,305.943,486.098,305.676,486.098"/>
			<path style="fill:#424242;" d="M314.748,483.84c0,0.225-0.068,0.47-0.205,0.727c-0.135,0.26-0.343,0.505-0.623,0.738
				c-0.277,0.233-0.627,0.424-1.052,0.565c-0.422,0.142-0.9,0.216-1.428,0.216c-1.13,0-2.01-0.33-2.643-0.986
				c-0.63-0.658-0.947-1.54-0.947-2.644c0-0.751,0.143-1.411,0.435-1.986c0.286-0.573,0.706-1.018,1.253-1.332
				c0.548-0.315,1.207-0.471,1.965-0.471c0.474,0,0.906,0.069,1.303,0.207c0.394,0.137,0.726,0.317,1.002,0.534
				c0.272,0.221,0.482,0.453,0.626,0.698c0.146,0.247,0.216,0.479,0.216,0.694c0,0.216-0.08,0.402-0.241,0.554
				c-0.166,0.151-0.363,0.228-0.59,0.228c-0.154,0-0.28-0.04-0.381-0.117c-0.101-0.079-0.214-0.204-0.337-0.381
				c-0.223-0.337-0.455-0.592-0.701-0.759c-0.241-0.171-0.549-0.255-0.924-0.255c-0.536,0-0.973,0.21-1.304,0.631
				c-0.329,0.419-0.495,0.999-0.495,1.726c0,0.344,0.044,0.661,0.129,0.948c0.082,0.286,0.205,0.532,0.366,0.734
				c0.162,0.202,0.355,0.355,0.581,0.46c0.228,0.108,0.479,0.159,0.748,0.159c0.367,0,0.68-0.084,0.94-0.253
				c0.264-0.17,0.494-0.427,0.694-0.775c0.111-0.205,0.23-0.364,0.358-0.481c0.129-0.115,0.288-0.175,0.475-0.175
				c0.222,0,0.408,0.087,0.553,0.255C314.673,483.468,314.748,483.65,314.748,483.84"/>
			<path style="fill:#424242;" d="M322.619,482.391c0,0.541-0.086,1.044-0.25,1.504c-0.174,0.459-0.416,0.853-0.738,1.181
				c-0.32,0.33-0.705,0.583-1.148,0.76c-0.45,0.174-0.949,0.264-1.504,0.264c-0.552,0-1.05-0.09-1.492-0.269
				c-0.438-0.175-0.824-0.432-1.144-0.761c-0.324-0.335-0.569-0.727-0.74-1.179c-0.161-0.453-0.247-0.953-0.247-1.499
				c0-0.553,0.087-1.059,0.252-1.518c0.17-0.46,0.414-0.852,0.731-1.177c0.317-0.325,0.698-0.575,1.147-0.753
				c0.453-0.175,0.949-0.263,1.492-0.263c0.552,0,1.054,0.088,1.504,0.269c0.449,0.176,0.832,0.432,1.156,0.759
				c0.322,0.334,0.565,0.724,0.732,1.176C322.534,481.342,322.619,481.841,322.619,482.391 M320.788,482.391
				c0-0.745-0.165-1.323-0.491-1.736c-0.326-0.419-0.767-0.624-1.318-0.624c-0.357,0-0.672,0.093-0.944,0.277
				c-0.272,0.184-0.479,0.457-0.626,0.819c-0.147,0.361-0.222,0.783-0.222,1.265c0,0.477,0.072,0.891,0.218,1.247
				c0.146,0.359,0.353,0.631,0.623,0.82c0.271,0.188,0.587,0.284,0.951,0.284c0.552,0,0.992-0.208,1.318-0.627
				C320.623,483.7,320.788,483.123,320.788,482.391"/>
			<path style="fill:#424242;" d="M329.576,482.525v2.424c0,0.385-0.085,0.669-0.26,0.863c-0.176,0.192-0.402,0.287-0.688,0.287
				c-0.276,0-0.502-0.095-0.669-0.287c-0.174-0.194-0.262-0.479-0.262-0.863v-2.905c0-0.46-0.014-0.817-0.045-1.072
				c-0.032-0.249-0.118-0.461-0.255-0.621c-0.138-0.166-0.358-0.247-0.655-0.247c-0.598,0-0.99,0.204-1.179,0.619
				c-0.188,0.405-0.286,0.994-0.286,1.763v2.463c0,0.379-0.086,0.666-0.254,0.861c-0.175,0.192-0.399,0.29-0.679,0.29
				c-0.278,0-0.504-0.098-0.68-0.29c-0.177-0.195-0.264-0.482-0.264-0.861v-5.218c0-0.344,0.078-0.605,0.236-0.782
				c0.161-0.181,0.37-0.269,0.626-0.269c0.251,0,0.458,0.087,0.627,0.25c0.166,0.168,0.249,0.398,0.249,0.692v0.172
				c0.319-0.376,0.657-0.655,1.016-0.83c0.363-0.183,0.761-0.271,1.205-0.271c0.458,0,0.852,0.092,1.18,0.274
				c0.33,0.183,0.6,0.461,0.816,0.828c0.309-0.372,0.639-0.649,0.992-0.83c0.352-0.181,0.74-0.271,1.169-0.271
				c0.497,0,0.929,0.1,1.29,0.295c0.358,0.196,0.628,0.478,0.807,0.841c0.155,0.332,0.232,0.851,0.232,1.559v3.561
				c0,0.385-0.086,0.669-0.258,0.863c-0.173,0.192-0.405,0.287-0.689,0.287c-0.277,0-0.502-0.098-0.679-0.29
				c-0.176-0.195-0.264-0.482-0.264-0.861v-3.068c0-0.393-0.016-0.705-0.049-0.941c-0.033-0.237-0.124-0.436-0.269-0.595
				c-0.149-0.16-0.373-0.242-0.67-0.242c-0.24,0-0.468,0.075-0.685,0.216c-0.216,0.14-0.385,0.335-0.507,0.572
				C329.646,481.199,329.576,481.744,329.576,482.525"/>
		</g>
		<g>
			<path style="fill:#424242;" d="M244.679,481.949c-0.001-0.003-0.001-0.007-0.001-0.012
				C244.678,481.943,244.678,481.946,244.679,481.949z"/>
			<path style="fill:#424242;" d="M244.771,482.533c0.001,0,0.001,0,0.001,0c-0.034-0.166-0.062-0.331-0.083-0.494
				C244.711,482.203,244.738,482.368,244.771,482.533z"/>
			<path style="fill:#424242;" d="M245.375,484.225c-0.004-0.007-0.007-0.015-0.012-0.023
				C245.367,484.21,245.371,484.218,245.375,484.225z"/>
			<path style="fill:#424242;" d="M245.317,484.112c-0.016-0.031-0.031-0.063-0.046-0.094
				C245.286,484.051,245.301,484.082,245.317,484.112z"/>
			<path style="fill:#424242;" d="M244.941,483.185c0.089,0.282,0.197,0.554,0.322,0.815c-0.127-0.266-0.232-0.539-0.319-0.815
				C244.943,483.185,244.941,483.185,244.941,483.185z"/>
			<path style="fill:#424242;" d="M251.739,474.961c0.352,0,0.613,0.028,0.911,0.078l0.084-0.536c0,0-0.824-0.253-1.906-0.165
				l-0.085-0.292c0.337-0.071,0.589-0.37,0.589-0.727c0-0.409-0.333-0.741-0.743-0.741c-0.41,0-0.742,0.332-0.742,0.741
				c0,0.357,0.252,0.657,0.588,0.727l0.094,0.326c-1.149,0.158-2.064,0.607-2.064,0.607l0.162,0.496
				c0.695-0.231,1.298-0.372,1.845-0.431C251.007,474.985,251.41,474.961,251.739,474.961z"/>
			<path style="fill:#424242;" d="M245.361,477.674l0.004-0.005c0.027-0.035,0.053-0.068,0.08-0.1l-0.22-0.159l-0.343-0.251
				c-0.019,0.027-0.559,0.523-0.986,1.44c-0.018-0.029-0.039-0.057-0.063-0.084c-0.128-0.139-0.306-0.211-0.533-0.207
				c-0.003,0-0.007,0-0.01,0c-0.14,0-0.237-0.047-0.3-0.104c0.063-0.08,0.101-0.18,0.101-0.291c0-0.259-0.211-0.47-0.471-0.47
				c-0.259,0-0.47,0.212-0.47,0.47c0,0.26,0.211,0.471,0.47,0.471c0.041,0,0.08-0.007,0.117-0.014
				c0.116,0.128,0.299,0.24,0.568,0.235c0.138-0.001,0.24,0.034,0.308,0.109c0.078,0.085,0.104,0.208,0.112,0.301
				c-0.001,0.001-0.001,0.003-0.002,0.003c-0.306,0.837-0.219,1.878-0.219,1.878l0.743,0.03c0.015-0.379,0.069-1.043,0.261-1.569
				C244.879,478.339,245.342,477.701,245.361,477.674z"/>
			<path style="fill:#424242;" d="M258.209,475.582c-0.259,0-0.47,0.21-0.47,0.47c0,0.041,0.006,0.079,0.016,0.116
				c-0.129,0.117-0.241,0.301-0.237,0.57c0.002,0.139-0.034,0.239-0.108,0.307c-0.06,0.053-0.135,0.081-0.208,0.099
				c-0.554-0.776-1.235-1.249-1.235-1.249l-0.534,0.572c0.403,0.367,0.815,0.826,1.216,1.4c0.277,0.396,0.562,0.907,0.799,1.417
				l0.72-0.342c0,0-0.329-0.813-0.792-1.541c0.08-0.028,0.161-0.072,0.233-0.135c0.141-0.127,0.21-0.307,0.206-0.533
				c-0.001-0.146,0.047-0.245,0.104-0.31c0.08,0.061,0.181,0.1,0.29,0.1c0.261,0,0.471-0.211,0.471-0.471
				C258.68,475.792,258.47,475.582,258.209,475.582z"/>
			<path style="fill:#424242;" d="M256.34,482.055c-0.991,0.483-2.622,1.121-4.77,1.421c-0.843,0.117-1.66,0.16-2.411,0.16
				c-0.978,0-1.842-0.073-2.506-0.157c-0.757-0.095-1.349-0.212-1.711-0.294c0.087,0.275,0.192,0.549,0.319,0.815
				c0.002,0.007,0.005,0.014,0.009,0.019c0.015,0.031,0.03,0.063,0.046,0.094c0.015,0.031,0.03,0.061,0.046,0.089
				c0.005,0.008,0.008,0.017,0.012,0.023c0.213,0.401,0.469,0.77,0.76,1.089c1.013,1.108,2.045,1.283,2.054,1.284l0.016,0.002
				l0.015,0.006c0.009,0.003,0.924,0.299,2.315,0.299c1.368,0,2.711-0.276,3.991-0.821c0.948-0.485,1.844-1.221,2.289-1.878
				c0.343-0.508,0.591-1.05,0.738-1.613c0.078-0.299,0.14-0.779,0.104-1.284C257.378,481.497,256.937,481.764,256.34,482.055z"/>
			<path style="fill:#424242;" d="M245.68,477.909c-0.029,0.042-0.459,0.65-0.799,1.585c-0.255,0.7-0.243,1.719-0.243,1.73v0.002
				c0,0.239,0.013,0.476,0.04,0.711c0,0.005,0,0.009,0.001,0.012c0.003,0.03,0.008,0.059,0.011,0.089
				c0.021,0.163,0.049,0.328,0.084,0.494c0.492,0.125,3.431,0.811,6.716,0.353c2.059-0.286,3.622-0.895,4.571-1.355
				c0.789-0.383,1.295-0.729,1.491-0.871c-0.195-0.723-0.733-1.857-1.226-2.565c-1.41-2.015-2.931-2.532-3.712-2.661
				c-0.298-0.049-0.536-0.077-0.874-0.077c-0.315,0-0.705,0.025-1.226,0.08c-0.523,0.054-1.105,0.192-1.781,0.419
				c-0.948,0.317-1.806,0.815-2.481,1.44l-0.023,0.021C246.128,477.41,245.92,477.604,245.68,477.909z M254.309,477.44
				c0.676,0,1.226,0.549,1.226,1.226c0,0.677-0.55,1.227-1.226,1.227c-0.676,0-1.225-0.55-1.225-1.227
				C253.084,477.99,253.633,477.44,254.309,477.44z M248.513,477.392c1.095,0,1.981,0.887,1.981,1.981
				c0,1.094-0.886,1.98-1.981,1.98c-1.093,0-1.981-0.885-1.981-1.98C246.532,478.279,247.419,477.392,248.513,477.392z"/>
		</g>
	</g>
</g>
<g id="OBJECTS">
	<path style="fill:#F57C00;" d="M61.589,145.443c0.903-4.29,1.806-4.911,1.411-6.746c-0.395-1.835-0.056-2.343,0.452-2.343
		c0.508,0,0.508,1.27,0.762,1.806c0.254,0.536,0.621,1.355,0.819-0.057c0.198-1.411-0.903-3.02-0.085-3.415
		c0.819-0.395,1.186,1.298,1.242,2.032c0.057,0.734,0.113,1.722,0.423,1.524c0.311-0.198,0.169-1.129,0.254-1.919
		c0.085-0.79-0.085-2.06,0.593-1.891c0.677,0.169,1.016,1.919,0.818,3.02c-0.198,1.101-0.198,1.355,0.057,1.355
		c0.254,0,0.508-0.254,0.564-1.186c0.056-0.931,0.226-1.835,0.706-1.835c0.48,0,0.903,1.439,0.79,2.456
		c-0.113,1.016-0.339,3.048-0.508,3.726c-0.169,0.677-0.339,2.343,0.452,1.27c0.79-1.073,2.823-1.863,3.331-1.468
		c0.508,0.395-1.411,2.202-1.919,2.569c-0.508,0.367-0.875,1.835-2.54,2.23c-1.665,0.395-3.274,0.96-3.613,1.948
		s-2.004,3.189-0.706,3.189c1.298,0,3.556-2.202,6.605-0.367c0,0,2.625-3.556,5.193-3.443s3.02,0.96,3.726,0.593
		c0.706-0.367,2.004,0.311,2.738-1.044c0.734-1.355,2.314-0.028,2.766-0.762c0.452-0.734,3.302-1.355,4.488-1.665
		c1.185-0.311-0.621-0.508-1.919-0.762c-1.298-0.254-2.569,0.762-2.71-1.496c-0.141-2.258-1.101-2.456-0.085-2.766
		c0,0-0.847-0.48-0.188-1.063c0.418-0.37,0.903-1.28,0.489-1.543c-0.414-0.264-1.261-0.442-0.64-1.232
		c0.621-0.79,1.298-1.007,1.731-2.493c0.433-1.486-0.452-1.402,0.583-2.587c1.035-1.186,3.218-5.448,8.835-3.923
		c5.617,1.524,6.83,4.798,6.83,7.931s-3.895,6.661-3.415,8.947c0.48,2.286,0.96-0.085,2.879,1.524
		c1.919,1.609,4.149-0.677,6.435-0.339c2.286,0.339,5.796,1.393,7.828,3.425c0,0,5.758-3.048,10.989,1.167
		c0,0,4.441-5.984,4.667-10.086s2.371-6.435,0.414-8.505c-1.957-2.07-5.495-4.328-4.968-7.564c0.004-0.027,0.016-0.049,0.022-0.075
		c-1.224-1.548-1.96-3.5-1.96-5.627c0-5.02,4.069-9.089,9.089-9.089c5.019,0,9.089,4.069,9.089,9.089
		c0,3.331-1.797,6.235-4.47,7.817c-0.219,0.467-0.429,1.199-0.479,2.325c-0.113,2.559-1.129,4.215-1.129,5.645
		s0,13.398-1.769,17.989s0.075,5.005-2.785,5.495c-2.86,0.489-13.586,2.898-20.435-0.113c0,0-2.183,2.258-3.011,7.188
		c-0.828,4.93-1.919,7.865-1.581,11.177c0.339,3.312,0.64,2.785,1.28,7.489c0.64,4.704-0.108,0.069,5.193,6.247
		c2.546,2.967,1.298,9.126,3.5,12.4c2.202,3.274,2.202,9.568,3.302,12.673c0.77,2.171,2.713,4.081,3.812,5.032
		c0.312,0.271,0.197,0.775-0.198,0.896c-2.334,0.72-2.921,1.81-2.921,1.81c1.079,1.885,2.036,1.537,2.036,1.537
		s3.689-2.448,9.025,0.115c5.336,2.562,10.492,3.376,12.525,1.709c2.032-1.668,6.123-3.523,7.316-1.788
		c1.193,1.735,2.264,5.813,4.307,6.957c2.043,1.145,4.647,4.555,4.791,7.564c0.145,3.009,0.697,7.467-2.717,8.117
		c-3.414,0.65-4.474-6.715-7.65-9.104c-3.176-2.389-4.887-3.329-6.653-4.459c-0.763-0.489-2.925-0.666-11.735-0.294
		c-8.81,0.372-15.693,0.101-20.774-6.661c0,0-1.468,1.129-1.919-0.339c0,0-3.048-7.677-5.532-11.742c0,0-0.866,7.226,0.489,9.935
		c1.355,2.71,2.841,5.701,3.237,6.097c0.395,0.395-1.637,2.032-5.306,1.976c-3.669-0.056-2.371,2.258-2.145,3.161
		s5.404,6.266,7.5,15.072c2.096,8.806,7.403,8.016,8.871,11.516c1.468,3.5,4.14,0.903,3.312,5.457
		c-0.828,4.554-2.86,2.954-1.449,5.946c1.411,2.992,1.637,3.387,0.056,6.379c-1.581,2.992-3.839,4.177-5.081,2.823
		c-1.242-1.355-1.468-3.274-2.202-9.71c-0.734-6.435-0.847-5.871-2.597-8.129c-1.75-2.258,1.411-1.637-1.186-4.234
		c-2.597-2.597-9.822-11.629-12.984-18.064c-3.161-6.435-4.008-5.363-4.347-8.524c-0.339-3.161-4.949-13.153-4.949-18.422
		c0-5.269,0-10.537-0.527-13.322c-0.527-2.785,0.075-5.57,0.753-9.107c0.677-3.538,1.054-3.763,0.452-4.892
		c-0.602-1.129-1.656-1.806-3.237-7.301c-1.581-5.495-2.333-5.495-2.785-8.806s0.151-4.968-1.129-7.527
		c-1.28-2.559,0-6.473-3.237-6.849c-3.236-0.376-4.742,2.183-8.129,2.183c-3.387,0-9.634,1.43-12.494-1.204
		C53.761,155.453,60.686,149.733,61.589,145.443z"/>
	<g>
		<path style="fill:#F57C00;" d="M277,338.011C277.082,337.387,278.452,337.565,277,338.011L277,338.011z"/>
		<path style="fill:#F57C00;" d="M218.533,418.809c2.046-4.773,2.727-9.887,6.136-14.319c2.046-2.727,4.432-4.773,6.478-7.5
			c5.114-7.159,8.864-14.319,14.66-20.796c2.046-4.432,4.773-8.864,5.625-13.978c0,0-6.137,6.904-12.785,8.182
			c-3.409,3.409-7.159,6.477-11.591,8.864c-2.339,1.079-4.007,3.017-5.066,5.355c2.49,1.825,4.108,4.769,4.108,8.093
			c0,5.539-4.49,10.029-10.029,10.029c-5.539,0-10.029-4.49-10.029-10.029s4.49-10.029,10.029-10.029
			c0.274,0,0.544,0.014,0.812,0.036c3.672-2.187,6.242-5.718,8.811-9.25c3.068-3.75,6.818-5.796,10.568-8.523
			c0.682-0.682,1.023-1.705,1.705-2.386c3.409-3.75,7.5-5.796,10.909-9.205c2.387-2.046,4.773-3.409,7.5-5.114
			c2.386-1.364,5.455-1.705,7.841-3.409c0.341-0.341,0.682-1.023,0.682-1.705c-0.341-1.705-2.046-3.068-2.046-4.773
			c0-1.023,1.364-0.682,1.364-1.364c-0.341-3.75,1.023-7.841,5.114-8.864c1.364,0,3.068-0.341,4.432,0.341
			c3.75,1.705,3.75,6.137,3.239,9.546c1.452-0.445,0.343,2.826-0.043,3.313c-0.967,1.221-1.125,2.526-1.718,3.96
			c0,0-0.256,0.909,3.182,2.5c4.984,2.307,7.238,7.728,7.238,7.728c2.898,2.955,7.273,4.602,10.91,10.171
			c0,0,5.398,1.932,10.568,8.693c2.556,3.343,4.418,5.428,6.067,6.751c3.652,2.93,7.385,4.102,7.385,4.102
			c3.145,0.731,4.602,0.128,4.901,0.938c0.298,0.81-4.602,0.341-4.602,0.341c1.577,1.662,5.412,2.131,4.858,2.813
			c-0.554,0.682-4.517-0.81-4.517-0.81s1.832,1.875,2.983,2.514c1.151,0.639,0.469,1.662-0.767,0.98
			c-1.236-0.682-4.645-2.77-4.645-2.77s2.6,1.96,3.196,2.94c0.597,0.98-0.597,0.639-2.301-0.682
			c-1.705-1.321-4.659-2.827-4.659-2.827c-2.188-1.051-1.165,2.841-2.017,4.091s-1.335-1.165-1.222-3.097
			c0.114-1.932-3.58-10.057-7.898-11.364c-4.318-1.307-10.54-8.068-10.54-8.068c-6.989-0.938-12.529-8.012-12.529-8.012
			c-1.84-0.568-5.022,2.727-5.022,5.455c-0.341,0.682,0.341,1.705,0.682,2.727c2.045,3.068,3.75,6.137,5.796,9.205
			c2.386,3.75,4.773,6.818,7.159,10.568c4.091,6.818,4.432,14.319,5.455,21.819c-1.705,5.796-0.682,11.932,3.75,16.364
			c1.023,0.682,1.705,1.705,2.727,2.727c0.682,1.023,0.682,2.386,0,3.409c-1.364,1.705-4.432,1.023-6.478,0
			c-1.705-1.023-4.091,0-5.796-1.023c-0.682-0.682-0.341-1.705-0.341-2.386c1.705-6.137,0-12.614-1.705-18.751
			c-1.023-3.068-2.386-5.796-3.068-9.205c-0.341-2.727,0-7.841-3.75-7.5c-1.705,0.341-3.068,1.705-4.773,2.046
			c-3.068-2.046-3.068-6.137-5.455-8.864c-0.682-0.341-1.023-1.023-1.705-1.705c-8.182-6.818-13.978,5.114-18.41,11.25
			c-2.046,3.068-5.455-0.682-8.182-0.682c-2.386,2.387-6.137,4.091-7.5,7.159c-2.727,5.114-7.159,8.864-9.887,13.637
			c-1.023,2.386-2.386,4.432-3.75,6.477c-1.023,1.705-0.341,3.75-1.023,5.796c-0.341,0.682-0.682,0.682-1.705,0.682
			c-0.682,0-1.023,0.682-1.705,1.023c-2.727,1.705-5.796,1.023-8.523-0.682c-0.682-0.341,0.341-1.705,0.682-2.386
			C211.714,425.627,216.146,423.241,218.533,418.809z"/>
	</g>
	<path style="fill:#F57C00;" d="M434.847,358.339c0.025-0.955-0.158-2.191-0.447-3.805c-0.785-4.383-1.374-7.719-1.962-10.205
		c-0.589-2.486-2.29-1.701-4.776-4.383c-2.486-2.682-7.065-4.71-9.944-6.934c-2.878-2.224-2.747-1.897-5.495-2.617
		c-2.748-0.72-9.616-3.075-9.911-3.434s0-2.682,0-2.682c1.635-0.229,1.962-3.958,1.995-5.037c0.033-1.079-0.262-0.523-1.079,0.098
		c-0.818,0.621-0.196-1.505,0.327-4.71c0.523-3.206-2.421-6.869-8.145-6.869c-5.724,0-6.411,3.107-7,5.462
		c-0.589,2.355,0.164,4.677,0.164,4.677c-0.916-0.458-0.425,1.341-0.556,3.206c-0.131,1.864,0.916,2.29,0.916,2.29
		c-0.131,2.093,1.341,5.495,1.341,5.495c-1.406-0.229-2.191,1.308-5.822,3.271c-3.631,1.963-5.168,4.056-6.673,7.261
		c-1.505,3.206-0.131,6.575-0.131,6.575c-5.659,6.411-2.6,6.476-5.471,8.243s-3.753,2.355-7.286,5.691
		c-3.533,3.336-6.629,0.452-6.629,0.452c-1.84-1.256-4.511-2.209-3.781-0.627c0.73,1.582,5.178,2.876,2.845,4.414
		c0,0-3.236,2.026-5.55,2.927c-2.314,0.901-3.357,1.877-2.036,1.868c1.321-0.009,4.796-1.415,4.796-1.415s-4.08,2.13-5.485,2.946
		s-0.799,2.095,0.514,1.338c1.312-0.758,4.249-1.457,4.249-1.457s-3.819,3.03-3.474,3.981c0.345,0.951,3.079-2.559,5.654-3.132
		c0,0-3.365,4.561-2.389,4.746c0.976,0.185,1.244-1.611,3.827-4.284c0,0,2.838-3.005,7.95-4.595c0,0,7.589-1.439,11.775-5.888
		c4.187-4.448,4.318-7.065,6.28-9.944c1.962-2.878,0.523-5.233,3.271-2.617c2.747,2.617,4.972,9.551,3.271,12.822
		c-1.701,3.271-11.775,12.953-13.869,16.747c-2.093,3.794-3.663,9.028-7.589,11.906c-3.925,2.878-1.832,1.962-3.794,4.056
		c-1.962,2.093-3.533,0-8.504,9.028c-4.972,9.028-7.589,15.177-11.121,17.009c0,0-1.112-0.425-6.411,4.972
		c0,0-4.514,1.374-6.476,4.612c0,0,5.593,5.986,8.93,3.925s1.374-0.883,4.612-1.668c3.238-0.785,1.766-1.766,2.944-4.219
		c1.177-2.453,1.864-5.397,4.318-7.85c2.453-2.453,9.224-5.888,13.738-13.934c4.514-8.046,2.159-3.042,5.495-6.28
		c3.336-3.238,6.738-5.332,10.074-8.937c0,0,4.71,3.671,6.411,2.362c1.701-1.308,9.616-11.383,11.448-10.794
		c1.832,0.589,2.421,0.523,3.467,2.878c1.047,2.355-0.85,2.224-0.458,6.411c0.393,4.187-3.206,2.421-0.065,5.233
		c0,0-1.635,9.486-5.168,14.719c0,0-2.29,2.159-3.402,5.953c-1.112,3.794-0.72,4.71-3.794,7.785
		c-3.075,3.075-4.383,8.046-0.393,9.486c3.991,1.439,7,0.523,8.177-2.682c1.178-3.206,0.85-5.822,1.701-8.046
		c0.85-2.224,3.14-6.542,3.402-9.682c0.262-3.14,9.093-9.093,11.644-15.57c2.551-6.476,0.589-5.56,2.159-7.719
		c1.57-2.159,4.579-11.121,3.86-14.85s0.523-7.392-2.878-9.159c-3.402-1.766,0.523-16.2,0.327-19.646c4.121,1.745,7,1.329,7,1.329
		c1.439,2.813,3.794,5.299,3.794,7.654c0,0.936,0.105,1.724,0.231,2.338c-4.181,1.465-7.181,5.444-7.181,10.125
		c0,5.925,4.803,10.729,10.729,10.729c5.925,0,10.729-4.803,10.729-10.729C444.067,363.547,440.058,359.073,434.847,358.339z"/>
	<path style="fill:#F57C00;" d="M151.268,357.201c-0.482-0.532-2.19-2.197-5.221-2.862c-3.628-0.795-10.139-1.64-11.53-1.193
		c0,0,1.541-1.988,2.386-3.628c0.845-1.64,0.547-2.137,0.994-3.479c0.447-1.342,1.093-0.696,1.292-2.883
		c0.199-2.187,0.497-6.014-2.435-8.2c-2.932-2.187-6.163-2.833-9.095-0.596c-2.932,2.236-3.38,5.964-3.479,7.057
		c0,0-0.447,0.05-0.745,1.441s0.099,2.336,0.099,2.336s-0.249,1.441-1.292,1.69c-1.044,0.249-1.541-0.447-5.517,1.64
		c-3.976,2.087-9.401,5.328-11.829,6.461c-7.455,3.479-7.482,5.635-7.482,5.635s-6.104,1.865-12.21,9.112
		c-3.019,3.583-5.199,5.804-7.102,7.189c-4.216,3.066-8.428,4.173-8.428,4.173c-3.536,0.647-5.125-0.1-5.499,0.785
		s5.1,0.621,5.1,0.621c-1.841,1.765-6.131,2.085-5.55,2.872c0.58,0.787,5.066-0.663,5.066-0.663s-2.136,1.989-3.45,2.639
		c-1.313,0.65-0.609,1.824,0.801,1.13c1.41-0.693,5.311-2.836,5.311-2.836s-2.994,2.043-3.709,3.102
		c-0.715,1.059,0.63,0.742,2.595-0.637c1.965-1.379,5.33-2.899,5.33-2.899c2.488-1.054,1.146,3.221,2.028,4.656
		c0.882,1.435,1.546-1.225,1.521-3.379c-0.025-2.154,1.443-6.509,6.314-7.736c0,0,4.354-2.094,7.734-5.971
		c0,0-2.989,4.295-3.711,6.494c0,0-8.35,25.049-9.012,32.603c0,0-5.169,0.133-7.157,1.59c-1.988,1.458-11.265,6.229-11.663,10.072
		c-0.398,3.843,2.518,7.289,6.096,4.241c3.578-3.048,9.675-7.289,9.675-7.289s5.566,4.506,9.41,0.795
		c3.843-3.711,4.109-5.699,4.109-5.699l9.277-0.795c0,0,1.59-5.193,1.988-10.681c0.398-5.488,3.181-12.115,3.181-12.115
		s10.868,10.735,12.326,8.88c1.458-1.855,2.783-7.952,3.976-7.952c1.193,0,1.723,0,1.06,4.639
		c-0.663,4.639,0.445,13.386,0.289,16.434c-0.156,3.048-2.674,9.012-3.072,12.193c-0.398,3.181-2.253,6.892,0.398,7.157
		c2.651,0.265,3.843,2.916,6.759,1.988c2.916-0.928,4.109,0.265,3.843-2.518c-0.265-2.783-3.843-4.771-3.048-8.35
		s0.53-9.277,1.988-14.314c1.458-5.036,3.446-17.494,2.121-22.265c-1.325-4.771-11.53-10.205-13.253-11
		c0,0,5.036-7.488,7.322-11.663c2.286-4.175,2.684-7.554,5.467-7.157c2.783,0.398,6.361-1.093,8.051-1.193
		c0,0,0.806,1.231,2.548,1.765c-2.04,1.668-3.343,4.204-3.343,7.044c0,5.023,4.072,9.095,9.095,9.095s9.095-4.072,9.095-9.095
		C157.081,361.818,154.669,358.518,151.268,357.201z"/>
	<path style="fill:#F57C00;" d="M357.006,225.552c0-2.387,1.909-5.927,3.978-5.927c2.068,0,3.779,1.551,3.62,0.239
		c-0.159-1.313,1.472-7.399,1.392-9.229c-0.08-1.83,1.273-5.887,1.591-7.2c0.318-1.313,0.159-3.143-0.955-5.967
		c-1.114-2.824-0.159-6.842-0.756-8.075c-0.597-1.233-0.477-6.842,0-9.547c0.477-2.705,4.734-4.773,6.444-6.365
		c1.71-1.591,6.563-2.546,6.921-3.103s0.796-3.461,0.04-4.097c-0.756-0.636-1.512-3.779-1.313-4.097
		c0.17-0.273,0.865,0.271,1.061,0.433c-0.1-0.13-0.305-0.641-0.305-2.66c0-2.665,2.188-7.12,7.001-7.12
		c4.813,0,5.609,5.37,5.609,7.16c0,1.79-0.318,2.745-0.318,2.745c0.796-0.636,0.915-0.199,0.796,1.631
		c-0.119,1.83-1.273,2.228-1.273,2.228c-0.159,2.029-1.591,2.665-1.989,4.018c-0.398,1.352,0.994,1.061,0.994,1.061
		s9.229,3.819,10.82,6.365c1.591,2.546,2.864,5.304,3.5,9.016c0.636,3.713,2.864,1.803,5.198,9.122c0,0,4.349,3.819,5.092,8.592
		c0.743,4.773,6.046,6.577,4.986,10.395c-0.857,3.085-1.649,6.555-4.55,8.334c-1.683,2.251-4.37,3.708-7.397,3.708
		c-5.098,0-9.231-4.133-9.231-9.231c0-5.098,4.133-9.231,9.231-9.231c1.223,0,2.39,0.24,3.458,0.672v-0.001
		c0,0-4.79-4.17-6.239-9.367c0,0-6.275-9.229-7.389-13.047c0,0-2.599,1.538-3.235,9.812c-0.637,8.274,1.962,7.319,0.849,13.471
		c-1.114,6.152-3.62,9.533-8.473,9.812c0,0,0.079,0.875,1.979,1.392c1.9,0.517,3.073-0.179,3.073,0.835
		c0,1.014-4.256,0.279-4.336,0.633c-0.08,0.355,1.054,1.256,2.407,1.952c1.352,0.696,4.555,0.298,4.634,0.995
		c0.08,0.696-3.401,0.418-3.401,0.418s0.159,0.159,1.213,0.716c1.054,0.557,2.586,0.835,2.287,1.472
		c-0.298,0.637-5.171-0.557-5.171-0.557c0.537,0.318,0.457,0.497-0.119,0.855c-0.577,0.358-3.64-0.995-4.077-1.233
		c-0.438-0.239-1.273,0.358-1.551,1.87c-0.279,1.512-0.875,2.466-1.193,4.535c-0.318,2.068-0.239,7.399-0.597,9.547
		c-0.358,2.148,0.239,2.188,3.659,4.455c3.421,2.267,5.768,8.115,7.797,11.376c2.029,3.262,2.864,2.665,5.688,2.665
		c2.824,0,3.938,0.835,3.938,3.978c0,3.142-0.636,2.745-0.517,5.012c0.119,2.267,1.432,1.949,1.392,5.41
		c-0.04,3.461-2.904,6.086-4.256,6.126c-1.353,0.04-2.546-1.472-2.466-3.063c0.08-1.591-1.591-9.348-4.137-10.859
		s-1.193-2.068-1.909-3.341c-0.716-1.273-4.773-4.137-6.245-5.887c-1.472-1.75-10.223-10.979-11.138-11.695
		c-0.915-0.716-0.716-5.489-1.432-6.365c-0.716-0.875-1.313-1.87-1.87-4.256c-0.557-2.387-0.239-5.37-0.756-6.444
		c-0.517-1.074-2.068-2.904-1.79-0.358c0.279,2.546-0.557,1.83-1.352,5.131c-0.796,3.302-1.949,3.699-4.177,3.699
		s-3.58-2.585-3.58-4.216s0.716-2.864,0.756-3.819C358.955,230.126,357.006,227.938,357.006,225.552z"/>
	<path style="fill:#F57C00;" d="M233.852,189.699c0.361,2.438,0.723,10.657,1.987,11.831c1.264,1.174,1.626,4.154,5.87,3.161
		c4.245-0.993,7.406-0.903,7.406-0.903s-0.723,7.586-1.987,9.392c-1.264,1.806-1.987,3.342-0.361,5.148
		c1.626,1.806-0.181,3.071-0.09,5.328c0.09,2.258-0.452,3.703-0.181,6.322c0.271,2.619,0.632,6.773,1.806,9.121
		c1.174,2.348-0.271,5.509,0.361,7.225c0.632,1.716,5.328,13.727,12.553,18.153c0,0,2.619,2.438,1.626,4.335
		c-0.993,1.896-1.397,5.057-2.776,6.231c-1.379,1.174-2.643,2.168-2.733,4.064c-0.09,1.897,0.181,3.42,4.245,3.42
		c4.064,0,6.683,0.463,6.864-2.427c0.181-2.89,0.542-2.438,2.98-3.432c2.438-0.993,2.89-2.077,2.89-2.077s0.452,4.967,2.89,4.967
		c2.438,0,6.502-0.723,7.225-6.502s-1.626-7.767-1.084-10.115c0.542-2.348,2.348-2.89-1.264-6.232
		c-3.612-3.341-4.606-4.154-5.509-6.502c-0.903-2.348-3.793-10.115-5.148-12.824c-1.355-2.709-3.703-0.993-3.613-3.703
		c0.09-2.709,2.258-3.703,2.258-3.703s3.161,3.612,3.206,1.987c0.045-1.626,7.134-18.423,8.128-20.275
		c0.046-0.086,0.085-0.197,0.121-0.318c1.693,1.153,3.738,1.828,5.941,1.828c5.836,0,10.566-4.731,10.566-10.566
		c0-4.21-2.462-7.843-6.025-9.542c-0.199-0.57-0.412-1.174-0.625-1.767c-0.813-2.258-5.057-5.599-5.057-5.599
		c-0.361-0.542-1.174-2.258-2.348-5.78c-1.174-3.522-2.98-3.522-4.245-5.148c-1.264-1.626-0.993-5.057-5.961-7.767
		c-4.967-2.709-11.188-5.148-13-4.335c-1.811,0.813-2.624,0.181-1.27-1.535c1.355-1.716,1.445-4.967,0.632-4.696
		c-0.813,0.271-0.632-0.361-0.452-1.987c0.181-1.626,0.361-7.857-5.419-7.857c-5.78,0-7.767,2.89-8.038,5.509
		c-0.271,2.619-0.903,8.58,0,11.108c0,0-3.703,1.084-5.057,2.935c-1.355,1.851-5.509,4.109-6.141,7.451
		c-0.632,3.342,0.542,8.76,0.542,8.76S233.491,187.26,233.852,189.699z M279.459,188.028c0.497,0.632,2.258,2.574,2.574,3.612
		c0.158,0.52,0.385,1.131,0.571,1.611c-0.911,0.473-1.744,1.074-2.476,1.78c0.035-0.898,0.164-1.791,0.37-2.488
		C280.949,191.008,279.459,188.028,279.459,188.028z M258.823,243.795c0-1.445,0.542-3.748,0.542-3.748s0-0.271,1.942,1.535
		c1.942,1.806,7.451,8.354,9.754,11.515c2.303,3.161,0.903,5.419,0.677,6.683c-0.226,1.264,1.355,5.464,1.355,5.464
		s-2.393-2.619-3.296-2.619s-2.89-2.664-4.967-4.741c-2.077-2.077-1.084-4.741-1.897-8.218
		C262.12,246.188,258.823,245.24,258.823,243.795z M244.418,191.279c0-1.942-0.316-4.245-0.316-4.245s2.98,4.967,4.29,10.883
		c0,0-2.664,0-3.251,0.406c0,0-0.452-0.993-2.664-1.174C240.264,196.969,244.418,193.221,244.418,191.279z"/>
</g>
</svg>
